<mxfile host="app.diagrams.net" modified="2021-10-10T08:38:34.929Z" agent="5.0 (Macintosh; Intel Mac OS X 10_15_7) AppleWebKit/605.1.15 (KHTML, like Gecko) Version/15.0 Safari/605.1.15" etag="OguGXQkPzadFqxzc4-zJ" version="15.5.0" type="github" pages="3">
  <diagram id="62W4XJTX_VT2LggmOyYF" name="System Overview">
    <mxGraphModel dx="1732" dy="976" grid="1" gridSize="10" guides="1" tooltips="1" connect="1" arrows="1" fold="1" page="1" pageScale="1" pageWidth="827" pageHeight="1169" math="0" shadow="0">
      <root>
        <mxCell id="0" />
        <mxCell id="1" parent="0" />
        <mxCell id="_eUac5zgVEyXwvHSKixd-1" value="RGB24 to YCbCr&lt;br&gt;Converter" style="rounded=0;whiteSpace=wrap;html=1;fontStyle=1" parent="1" vertex="1">
          <mxGeometry x="180" y="370" width="120" height="90" as="geometry" />
        </mxCell>
        <mxCell id="_eUac5zgVEyXwvHSKixd-2" value="YCbCr to RGB24&lt;br&gt;Converter" style="rounded=0;whiteSpace=wrap;html=1;fontStyle=1" parent="1" vertex="1">
          <mxGeometry x="480" y="370" width="120" height="90" as="geometry" />
        </mxCell>
        <mxCell id="_eUac5zgVEyXwvHSKixd-3" value="Contrast Enhancer" style="rounded=0;whiteSpace=wrap;html=1;fontStyle=1" parent="1" vertex="1">
          <mxGeometry x="330" y="370" width="120" height="90" as="geometry" />
        </mxCell>
        <mxCell id="_eUac5zgVEyXwvHSKixd-5" value="" style="shape=singleArrow;whiteSpace=wrap;html=1;arrowWidth=0.5331263950892825;arrowSize=0.4555557250976553;" parent="1" vertex="1">
          <mxGeometry x="130" y="397.5" width="50" height="35" as="geometry" />
        </mxCell>
        <mxCell id="_eUac5zgVEyXwvHSKixd-7" value="" style="shape=singleArrow;whiteSpace=wrap;html=1;arrowWidth=0.5331263950892825;arrowSize=0.4555557250976553;" parent="1" vertex="1">
          <mxGeometry x="600" y="397.5" width="50" height="35" as="geometry" />
        </mxCell>
        <mxCell id="_eUac5zgVEyXwvHSKixd-8" value="" style="shape=singleArrow;whiteSpace=wrap;html=1;arrowWidth=0.5331263950892825;arrowSize=0.4555557250976553;" parent="1" vertex="1">
          <mxGeometry x="300" y="397.5" width="30" height="35" as="geometry" />
        </mxCell>
        <mxCell id="_eUac5zgVEyXwvHSKixd-9" value="" style="shape=singleArrow;whiteSpace=wrap;html=1;arrowWidth=0.5331263950892825;arrowSize=0.4555557250976553;" parent="1" vertex="1">
          <mxGeometry x="450" y="397.5" width="30" height="35" as="geometry" />
        </mxCell>
        <mxCell id="_eUac5zgVEyXwvHSKixd-10" value="AMBA AXI4&lt;br&gt;STREAM SLAVE" style="text;html=1;strokeColor=none;fillColor=none;align=center;verticalAlign=middle;whiteSpace=wrap;rounded=0;fontStyle=1" parent="1" vertex="1">
          <mxGeometry x="30" y="400" width="100" height="30" as="geometry" />
        </mxCell>
        <mxCell id="_eUac5zgVEyXwvHSKixd-11" value="AMBA AXI4&lt;br&gt;STREAM MASTER" style="text;html=1;strokeColor=none;fillColor=none;align=center;verticalAlign=middle;whiteSpace=wrap;rounded=0;fontStyle=1" parent="1" vertex="1">
          <mxGeometry x="650" y="400" width="110" height="30" as="geometry" />
        </mxCell>
      </root>
    </mxGraphModel>
  </diagram>
  <diagram id="2MRhwaW7Qucn92WVC5zs" name="RGB tp YCbCr Converter">
    <mxGraphModel dx="2559" dy="976" grid="1" gridSize="10" guides="1" tooltips="1" connect="1" arrows="1" fold="1" page="1" pageScale="1" pageWidth="827" pageHeight="1169" math="0" shadow="0">
      <root>
        <mxCell id="OV7oBd3ReCpXOeC64sAB-0" />
        <mxCell id="OV7oBd3ReCpXOeC64sAB-1" parent="OV7oBd3ReCpXOeC64sAB-0" />
        <mxCell id="OV7oBd3ReCpXOeC64sAB-58" value="" style="rounded=0;whiteSpace=wrap;html=1;fillColor=#FFFFFF;" parent="OV7oBd3ReCpXOeC64sAB-1" vertex="1">
          <mxGeometry x="460" y="50" width="200" height="720" as="geometry" />
        </mxCell>
        <mxCell id="OV7oBd3ReCpXOeC64sAB-57" value="" style="rounded=0;whiteSpace=wrap;html=1;fillColor=#FFFFFF;" parent="OV7oBd3ReCpXOeC64sAB-1" vertex="1">
          <mxGeometry x="240" y="50" width="220" height="720" as="geometry" />
        </mxCell>
        <mxCell id="OV7oBd3ReCpXOeC64sAB-56" value="" style="rounded=0;whiteSpace=wrap;html=1;fillColor=#FFFFFF;" parent="OV7oBd3ReCpXOeC64sAB-1" vertex="1">
          <mxGeometry x="-10" y="50" width="250" height="720" as="geometry" />
        </mxCell>
        <mxCell id="OV7oBd3ReCpXOeC64sAB-29" style="edgeStyle=orthogonalEdgeStyle;shape=flexArrow;rounded=0;orthogonalLoop=1;jettySize=auto;html=1;exitX=1;exitY=0.5;exitDx=0;exitDy=0;entryX=0.5;entryY=0;entryDx=0;entryDy=0;fillColor=default;" parent="OV7oBd3ReCpXOeC64sAB-1" source="exX1HpsoAYPAiWp6pFQq-0" target="OV7oBd3ReCpXOeC64sAB-28" edge="1">
          <mxGeometry relative="1" as="geometry" />
        </mxCell>
        <mxCell id="exX1HpsoAYPAiWp6pFQq-4" style="edgeStyle=orthogonalEdgeStyle;shape=flexArrow;rounded=0;orthogonalLoop=1;jettySize=auto;html=1;exitX=1;exitY=0.5;exitDx=0;exitDy=0;entryX=0;entryY=0.5;entryDx=0;entryDy=0;" edge="1" parent="OV7oBd3ReCpXOeC64sAB-1" source="OV7oBd3ReCpXOeC64sAB-4" target="exX1HpsoAYPAiWp6pFQq-0">
          <mxGeometry relative="1" as="geometry" />
        </mxCell>
        <mxCell id="OV7oBd3ReCpXOeC64sAB-4" value="X" style="ellipse;whiteSpace=wrap;html=1;aspect=fixed;fontStyle=1" parent="OV7oBd3ReCpXOeC64sAB-1" vertex="1">
          <mxGeometry x="150" y="290" width="40" height="40" as="geometry" />
        </mxCell>
        <mxCell id="OV7oBd3ReCpXOeC64sAB-27" style="edgeStyle=orthogonalEdgeStyle;shape=flexArrow;rounded=0;orthogonalLoop=1;jettySize=auto;html=1;exitX=1;exitY=0.5;exitDx=0;exitDy=0;entryX=0.5;entryY=0;entryDx=0;entryDy=0;fillColor=default;" parent="OV7oBd3ReCpXOeC64sAB-1" source="exX1HpsoAYPAiWp6pFQq-1" target="OV7oBd3ReCpXOeC64sAB-26" edge="1">
          <mxGeometry relative="1" as="geometry" />
        </mxCell>
        <mxCell id="exX1HpsoAYPAiWp6pFQq-5" style="edgeStyle=orthogonalEdgeStyle;shape=flexArrow;rounded=0;orthogonalLoop=1;jettySize=auto;html=1;exitX=1;exitY=0.5;exitDx=0;exitDy=0;entryX=0;entryY=0.5;entryDx=0;entryDy=0;" edge="1" parent="OV7oBd3ReCpXOeC64sAB-1" source="OV7oBd3ReCpXOeC64sAB-5" target="exX1HpsoAYPAiWp6pFQq-1">
          <mxGeometry relative="1" as="geometry" />
        </mxCell>
        <mxCell id="OV7oBd3ReCpXOeC64sAB-5" value="X" style="ellipse;whiteSpace=wrap;html=1;aspect=fixed;fontStyle=1" parent="OV7oBd3ReCpXOeC64sAB-1" vertex="1">
          <mxGeometry x="150" y="100" width="40" height="40" as="geometry" />
        </mxCell>
        <mxCell id="OV7oBd3ReCpXOeC64sAB-31" style="edgeStyle=orthogonalEdgeStyle;shape=flexArrow;rounded=0;orthogonalLoop=1;jettySize=auto;html=1;exitX=1;exitY=0.5;exitDx=0;exitDy=0;entryX=0.5;entryY=0;entryDx=0;entryDy=0;fillColor=default;" parent="OV7oBd3ReCpXOeC64sAB-1" source="exX1HpsoAYPAiWp6pFQq-2" target="OV7oBd3ReCpXOeC64sAB-30" edge="1">
          <mxGeometry relative="1" as="geometry" />
        </mxCell>
        <mxCell id="exX1HpsoAYPAiWp6pFQq-3" style="edgeStyle=orthogonalEdgeStyle;rounded=0;orthogonalLoop=1;jettySize=auto;html=1;exitX=1;exitY=0.5;exitDx=0;exitDy=0;entryX=0;entryY=0.5;entryDx=0;entryDy=0;shape=flexArrow;" edge="1" parent="OV7oBd3ReCpXOeC64sAB-1" source="OV7oBd3ReCpXOeC64sAB-6" target="exX1HpsoAYPAiWp6pFQq-2">
          <mxGeometry relative="1" as="geometry" />
        </mxCell>
        <mxCell id="OV7oBd3ReCpXOeC64sAB-6" value="X" style="ellipse;whiteSpace=wrap;html=1;aspect=fixed;fontStyle=1" parent="OV7oBd3ReCpXOeC64sAB-1" vertex="1">
          <mxGeometry x="150" y="550" width="40" height="40" as="geometry" />
        </mxCell>
        <mxCell id="OV7oBd3ReCpXOeC64sAB-14" style="edgeStyle=orthogonalEdgeStyle;rounded=0;orthogonalLoop=1;jettySize=auto;html=1;exitX=0.5;exitY=0;exitDx=0;exitDy=0;entryX=0.5;entryY=1;entryDx=0;entryDy=0;shape=flexArrow;" parent="OV7oBd3ReCpXOeC64sAB-1" source="OV7oBd3ReCpXOeC64sAB-8" target="OV7oBd3ReCpXOeC64sAB-6" edge="1">
          <mxGeometry relative="1" as="geometry">
            <Array as="points">
              <mxPoint x="35" y="630" />
              <mxPoint x="170" y="630" />
            </Array>
          </mxGeometry>
        </mxCell>
        <mxCell id="OV7oBd3ReCpXOeC64sAB-21" style="edgeStyle=orthogonalEdgeStyle;shape=flexArrow;rounded=0;orthogonalLoop=1;jettySize=auto;html=1;exitX=1;exitY=0.5;exitDx=0;exitDy=0;entryX=0;entryY=0.5;entryDx=0;entryDy=0;" parent="OV7oBd3ReCpXOeC64sAB-1" source="OV7oBd3ReCpXOeC64sAB-20" target="OV7oBd3ReCpXOeC64sAB-5" edge="1">
          <mxGeometry relative="1" as="geometry" />
        </mxCell>
        <mxCell id="OV7oBd3ReCpXOeC64sAB-20" value="ROM" style="rounded=0;whiteSpace=wrap;html=1;fillColor=#FFFFFF;fontStyle=1" parent="OV7oBd3ReCpXOeC64sAB-1" vertex="1">
          <mxGeometry x="70" y="100" width="50" height="40" as="geometry" />
        </mxCell>
        <mxCell id="OV7oBd3ReCpXOeC64sAB-23" style="edgeStyle=orthogonalEdgeStyle;shape=flexArrow;rounded=0;orthogonalLoop=1;jettySize=auto;html=1;exitX=1;exitY=0.5;exitDx=0;exitDy=0;entryX=0;entryY=0.5;entryDx=0;entryDy=0;" parent="OV7oBd3ReCpXOeC64sAB-1" source="OV7oBd3ReCpXOeC64sAB-22" target="OV7oBd3ReCpXOeC64sAB-4" edge="1">
          <mxGeometry relative="1" as="geometry" />
        </mxCell>
        <mxCell id="OV7oBd3ReCpXOeC64sAB-22" value="ROM" style="rounded=0;whiteSpace=wrap;html=1;fillColor=#FFFFFF;fontStyle=1" parent="OV7oBd3ReCpXOeC64sAB-1" vertex="1">
          <mxGeometry x="70" y="290" width="50" height="40" as="geometry" />
        </mxCell>
        <mxCell id="OV7oBd3ReCpXOeC64sAB-25" style="edgeStyle=orthogonalEdgeStyle;shape=flexArrow;rounded=0;orthogonalLoop=1;jettySize=auto;html=1;exitX=1;exitY=0.5;exitDx=0;exitDy=0;entryX=0;entryY=0.5;entryDx=0;entryDy=0;" parent="OV7oBd3ReCpXOeC64sAB-1" source="OV7oBd3ReCpXOeC64sAB-24" target="OV7oBd3ReCpXOeC64sAB-6" edge="1">
          <mxGeometry relative="1" as="geometry" />
        </mxCell>
        <mxCell id="OV7oBd3ReCpXOeC64sAB-24" value="ROM" style="rounded=0;whiteSpace=wrap;html=1;fillColor=#FFFFFF;fontStyle=1" parent="OV7oBd3ReCpXOeC64sAB-1" vertex="1">
          <mxGeometry x="70" y="550" width="50" height="40" as="geometry" />
        </mxCell>
        <mxCell id="OV7oBd3ReCpXOeC64sAB-33" style="edgeStyle=orthogonalEdgeStyle;shape=flexArrow;rounded=0;orthogonalLoop=1;jettySize=auto;html=1;exitX=1;exitY=0.5;exitDx=0;exitDy=0;entryX=0;entryY=0.5;entryDx=0;entryDy=0;fillColor=default;" parent="OV7oBd3ReCpXOeC64sAB-1" source="OV7oBd3ReCpXOeC64sAB-26" target="OV7oBd3ReCpXOeC64sAB-32" edge="1">
          <mxGeometry relative="1" as="geometry" />
        </mxCell>
        <mxCell id="OV7oBd3ReCpXOeC64sAB-26" value="+" style="ellipse;whiteSpace=wrap;html=1;aspect=fixed;fontStyle=1" parent="OV7oBd3ReCpXOeC64sAB-1" vertex="1">
          <mxGeometry x="360" y="160" width="40" height="40" as="geometry" />
        </mxCell>
        <mxCell id="OV7oBd3ReCpXOeC64sAB-35" style="edgeStyle=orthogonalEdgeStyle;shape=flexArrow;rounded=0;orthogonalLoop=1;jettySize=auto;html=1;exitX=1;exitY=0.5;exitDx=0;exitDy=0;entryX=0;entryY=0.5;entryDx=0;entryDy=0;fillColor=default;" parent="OV7oBd3ReCpXOeC64sAB-1" source="OV7oBd3ReCpXOeC64sAB-28" target="OV7oBd3ReCpXOeC64sAB-34" edge="1">
          <mxGeometry relative="1" as="geometry" />
        </mxCell>
        <mxCell id="OV7oBd3ReCpXOeC64sAB-28" value="+" style="ellipse;whiteSpace=wrap;html=1;aspect=fixed;fontStyle=1" parent="OV7oBd3ReCpXOeC64sAB-1" vertex="1">
          <mxGeometry x="360" y="350" width="40" height="40" as="geometry" />
        </mxCell>
        <mxCell id="OV7oBd3ReCpXOeC64sAB-37" style="edgeStyle=orthogonalEdgeStyle;shape=flexArrow;rounded=0;orthogonalLoop=1;jettySize=auto;html=1;exitX=1;exitY=0.5;exitDx=0;exitDy=0;entryX=0;entryY=0.5;entryDx=0;entryDy=0;fillColor=default;" parent="OV7oBd3ReCpXOeC64sAB-1" source="OV7oBd3ReCpXOeC64sAB-30" target="OV7oBd3ReCpXOeC64sAB-36" edge="1">
          <mxGeometry relative="1" as="geometry" />
        </mxCell>
        <mxCell id="OV7oBd3ReCpXOeC64sAB-30" value="+" style="ellipse;whiteSpace=wrap;html=1;aspect=fixed;fontStyle=1" parent="OV7oBd3ReCpXOeC64sAB-1" vertex="1">
          <mxGeometry x="360" y="610" width="40" height="40" as="geometry" />
        </mxCell>
        <mxCell id="OV7oBd3ReCpXOeC64sAB-59" style="edgeStyle=orthogonalEdgeStyle;shape=flexArrow;rounded=0;orthogonalLoop=1;jettySize=auto;html=1;exitX=1;exitY=0.5;exitDx=0;exitDy=0;fillColor=default;" parent="OV7oBd3ReCpXOeC64sAB-1" source="OV7oBd3ReCpXOeC64sAB-32" edge="1">
          <mxGeometry relative="1" as="geometry">
            <mxPoint x="700" y="180" as="targetPoint" />
          </mxGeometry>
        </mxCell>
        <mxCell id="OV7oBd3ReCpXOeC64sAB-32" value="FF" style="rounded=0;whiteSpace=wrap;html=1;fillColor=#FFFFFF;fontStyle=1" parent="OV7oBd3ReCpXOeC64sAB-1" vertex="1">
          <mxGeometry x="540" y="150" width="40" height="60" as="geometry" />
        </mxCell>
        <mxCell id="OV7oBd3ReCpXOeC64sAB-34" value="&lt;span&gt;FF&lt;/span&gt;" style="rounded=0;whiteSpace=wrap;html=1;fillColor=#FFFFFF;fontStyle=1" parent="OV7oBd3ReCpXOeC64sAB-1" vertex="1">
          <mxGeometry x="540" y="340" width="40" height="60" as="geometry" />
        </mxCell>
        <mxCell id="OV7oBd3ReCpXOeC64sAB-36" value="&lt;span&gt;FF&lt;/span&gt;" style="rounded=0;whiteSpace=wrap;html=1;fillColor=#FFFFFF;fontStyle=1" parent="OV7oBd3ReCpXOeC64sAB-1" vertex="1">
          <mxGeometry x="540" y="600" width="40" height="60" as="geometry" />
        </mxCell>
        <mxCell id="OV7oBd3ReCpXOeC64sAB-39" style="edgeStyle=orthogonalEdgeStyle;shape=flexArrow;rounded=0;orthogonalLoop=1;jettySize=auto;html=1;exitX=0.5;exitY=0;exitDx=0;exitDy=0;entryX=0.5;entryY=1;entryDx=0;entryDy=0;" parent="OV7oBd3ReCpXOeC64sAB-1" source="OV7oBd3ReCpXOeC64sAB-38" target="OV7oBd3ReCpXOeC64sAB-26" edge="1">
          <mxGeometry relative="1" as="geometry" />
        </mxCell>
        <mxCell id="OV7oBd3ReCpXOeC64sAB-38" value="" style="shape=trapezoid;perimeter=trapezoidPerimeter;whiteSpace=wrap;html=1;fixedSize=1;fillColor=#FFFFFF;rotation=90;" parent="OV7oBd3ReCpXOeC64sAB-1" vertex="1">
          <mxGeometry x="300" y="230" width="80" height="20" as="geometry" />
        </mxCell>
        <mxCell id="OV7oBd3ReCpXOeC64sAB-42" style="edgeStyle=orthogonalEdgeStyle;shape=flexArrow;rounded=0;orthogonalLoop=1;jettySize=auto;html=1;exitX=1;exitY=0.5;exitDx=0;exitDy=0;entryX=0.25;entryY=1;entryDx=0;entryDy=0;" parent="OV7oBd3ReCpXOeC64sAB-1" source="OV7oBd3ReCpXOeC64sAB-41" target="OV7oBd3ReCpXOeC64sAB-38" edge="1">
          <mxGeometry relative="1" as="geometry" />
        </mxCell>
        <mxCell id="OV7oBd3ReCpXOeC64sAB-41" value="&lt;span&gt;ROM&lt;/span&gt;" style="rounded=0;whiteSpace=wrap;html=1;fillColor=#FFFFFF;fontStyle=1" parent="OV7oBd3ReCpXOeC64sAB-1" vertex="1">
          <mxGeometry x="265" y="200" width="35" height="40" as="geometry" />
        </mxCell>
        <mxCell id="OV7oBd3ReCpXOeC64sAB-43" style="edgeStyle=orthogonalEdgeStyle;shape=flexArrow;rounded=0;orthogonalLoop=1;jettySize=auto;html=1;exitX=1;exitY=0.5;exitDx=0;exitDy=0;entryX=0.75;entryY=1;entryDx=0;entryDy=0;fillColor=default;" parent="OV7oBd3ReCpXOeC64sAB-1" source="OV7oBd3ReCpXOeC64sAB-26" target="OV7oBd3ReCpXOeC64sAB-38" edge="1">
          <mxGeometry relative="1" as="geometry">
            <Array as="points">
              <mxPoint x="420" y="180" />
              <mxPoint x="420" y="290" />
              <mxPoint x="290" y="290" />
              <mxPoint x="290" y="260" />
            </Array>
          </mxGeometry>
        </mxCell>
        <mxCell id="OV7oBd3ReCpXOeC64sAB-49" style="edgeStyle=orthogonalEdgeStyle;shape=flexArrow;rounded=0;orthogonalLoop=1;jettySize=auto;html=1;exitX=0.5;exitY=0;exitDx=0;exitDy=0;entryX=0.5;entryY=1;entryDx=0;entryDy=0;fillColor=default;" parent="OV7oBd3ReCpXOeC64sAB-1" source="OV7oBd3ReCpXOeC64sAB-45" target="OV7oBd3ReCpXOeC64sAB-28" edge="1">
          <mxGeometry relative="1" as="geometry" />
        </mxCell>
        <mxCell id="OV7oBd3ReCpXOeC64sAB-45" value="" style="shape=trapezoid;perimeter=trapezoidPerimeter;whiteSpace=wrap;html=1;fixedSize=1;fillColor=#FFFFFF;rotation=90;" parent="OV7oBd3ReCpXOeC64sAB-1" vertex="1">
          <mxGeometry x="300" y="420" width="80" height="20" as="geometry" />
        </mxCell>
        <mxCell id="OV7oBd3ReCpXOeC64sAB-46" style="edgeStyle=orthogonalEdgeStyle;shape=flexArrow;rounded=0;orthogonalLoop=1;jettySize=auto;html=1;exitX=1;exitY=0.5;exitDx=0;exitDy=0;entryX=0.25;entryY=1;entryDx=0;entryDy=0;" parent="OV7oBd3ReCpXOeC64sAB-1" source="OV7oBd3ReCpXOeC64sAB-47" target="OV7oBd3ReCpXOeC64sAB-45" edge="1">
          <mxGeometry relative="1" as="geometry" />
        </mxCell>
        <mxCell id="OV7oBd3ReCpXOeC64sAB-47" value="&lt;span&gt;ROM&lt;/span&gt;" style="rounded=0;whiteSpace=wrap;html=1;fillColor=#FFFFFF;fontStyle=1" parent="OV7oBd3ReCpXOeC64sAB-1" vertex="1">
          <mxGeometry x="265" y="390" width="35" height="40" as="geometry" />
        </mxCell>
        <mxCell id="OV7oBd3ReCpXOeC64sAB-48" style="edgeStyle=orthogonalEdgeStyle;shape=flexArrow;rounded=0;orthogonalLoop=1;jettySize=auto;html=1;exitX=1;exitY=0.5;exitDx=0;exitDy=0;entryX=0.75;entryY=1;entryDx=0;entryDy=0;fillColor=default;" parent="OV7oBd3ReCpXOeC64sAB-1" target="OV7oBd3ReCpXOeC64sAB-45" edge="1">
          <mxGeometry relative="1" as="geometry">
            <mxPoint x="399.9999999999998" y="370" as="sourcePoint" />
            <Array as="points">
              <mxPoint x="420" y="370" />
              <mxPoint x="420" y="480" />
              <mxPoint x="290" y="480" />
              <mxPoint x="290" y="450" />
            </Array>
          </mxGeometry>
        </mxCell>
        <mxCell id="OV7oBd3ReCpXOeC64sAB-55" style="edgeStyle=orthogonalEdgeStyle;shape=flexArrow;rounded=0;orthogonalLoop=1;jettySize=auto;html=1;exitX=0.5;exitY=0;exitDx=0;exitDy=0;entryX=0.5;entryY=1;entryDx=0;entryDy=0;fillColor=default;" parent="OV7oBd3ReCpXOeC64sAB-1" source="OV7oBd3ReCpXOeC64sAB-51" target="OV7oBd3ReCpXOeC64sAB-30" edge="1">
          <mxGeometry relative="1" as="geometry" />
        </mxCell>
        <mxCell id="OV7oBd3ReCpXOeC64sAB-51" value="" style="shape=trapezoid;perimeter=trapezoidPerimeter;whiteSpace=wrap;html=1;fixedSize=1;fillColor=#FFFFFF;rotation=90;" parent="OV7oBd3ReCpXOeC64sAB-1" vertex="1">
          <mxGeometry x="300" y="680" width="80" height="20" as="geometry" />
        </mxCell>
        <mxCell id="OV7oBd3ReCpXOeC64sAB-52" style="edgeStyle=orthogonalEdgeStyle;shape=flexArrow;rounded=0;orthogonalLoop=1;jettySize=auto;html=1;exitX=1;exitY=0.5;exitDx=0;exitDy=0;entryX=0.25;entryY=1;entryDx=0;entryDy=0;" parent="OV7oBd3ReCpXOeC64sAB-1" source="OV7oBd3ReCpXOeC64sAB-53" target="OV7oBd3ReCpXOeC64sAB-51" edge="1">
          <mxGeometry relative="1" as="geometry" />
        </mxCell>
        <mxCell id="OV7oBd3ReCpXOeC64sAB-53" value="&lt;span&gt;ROM&lt;/span&gt;" style="rounded=0;whiteSpace=wrap;html=1;fillColor=#FFFFFF;fontStyle=1" parent="OV7oBd3ReCpXOeC64sAB-1" vertex="1">
          <mxGeometry x="265" y="650" width="35" height="40" as="geometry" />
        </mxCell>
        <mxCell id="OV7oBd3ReCpXOeC64sAB-54" style="edgeStyle=orthogonalEdgeStyle;shape=flexArrow;rounded=0;orthogonalLoop=1;jettySize=auto;html=1;exitX=1;exitY=0.5;exitDx=0;exitDy=0;entryX=0.75;entryY=1;entryDx=0;entryDy=0;fillColor=default;" parent="OV7oBd3ReCpXOeC64sAB-1" target="OV7oBd3ReCpXOeC64sAB-51" edge="1">
          <mxGeometry relative="1" as="geometry">
            <mxPoint x="399.9999999999998" y="630" as="sourcePoint" />
            <Array as="points">
              <mxPoint x="420" y="630" />
              <mxPoint x="420" y="740" />
              <mxPoint x="290" y="740" />
              <mxPoint x="290" y="710" />
            </Array>
          </mxGeometry>
        </mxCell>
        <mxCell id="OV7oBd3ReCpXOeC64sAB-15" style="edgeStyle=orthogonalEdgeStyle;rounded=0;orthogonalLoop=1;jettySize=auto;html=1;exitX=0.5;exitY=0;exitDx=0;exitDy=0;entryX=0.5;entryY=1;entryDx=0;entryDy=0;shape=flexArrow;fillColor=default;" parent="OV7oBd3ReCpXOeC64sAB-1" source="OV7oBd3ReCpXOeC64sAB-8" target="OV7oBd3ReCpXOeC64sAB-4" edge="1">
          <mxGeometry relative="1" as="geometry">
            <Array as="points">
              <mxPoint x="35" y="370" />
              <mxPoint x="170" y="370" />
            </Array>
          </mxGeometry>
        </mxCell>
        <mxCell id="OV7oBd3ReCpXOeC64sAB-16" style="edgeStyle=orthogonalEdgeStyle;rounded=0;orthogonalLoop=1;jettySize=auto;html=1;exitX=0.5;exitY=0;exitDx=0;exitDy=0;entryX=0.5;entryY=1;entryDx=0;entryDy=0;shape=flexArrow;fillColor=default;" parent="OV7oBd3ReCpXOeC64sAB-1" source="OV7oBd3ReCpXOeC64sAB-8" target="OV7oBd3ReCpXOeC64sAB-5" edge="1">
          <mxGeometry relative="1" as="geometry">
            <Array as="points">
              <mxPoint x="35" y="180" />
              <mxPoint x="170" y="180" />
            </Array>
          </mxGeometry>
        </mxCell>
        <mxCell id="OV7oBd3ReCpXOeC64sAB-60" style="edgeStyle=orthogonalEdgeStyle;shape=flexArrow;rounded=0;orthogonalLoop=1;jettySize=auto;html=1;exitX=1;exitY=0.5;exitDx=0;exitDy=0;fillColor=default;" parent="OV7oBd3ReCpXOeC64sAB-1" edge="1">
          <mxGeometry relative="1" as="geometry">
            <mxPoint x="700" y="369.5" as="targetPoint" />
            <mxPoint x="580" y="369.5" as="sourcePoint" />
          </mxGeometry>
        </mxCell>
        <mxCell id="OV7oBd3ReCpXOeC64sAB-61" style="edgeStyle=orthogonalEdgeStyle;shape=flexArrow;rounded=0;orthogonalLoop=1;jettySize=auto;html=1;exitX=1;exitY=0.5;exitDx=0;exitDy=0;fillColor=default;" parent="OV7oBd3ReCpXOeC64sAB-1" edge="1">
          <mxGeometry relative="1" as="geometry">
            <mxPoint x="700" y="629.5" as="targetPoint" />
            <mxPoint x="580" y="629.5" as="sourcePoint" />
          </mxGeometry>
        </mxCell>
        <mxCell id="OV7oBd3ReCpXOeC64sAB-62" value="Stage 1&lt;br&gt;Multiplication" style="text;html=1;strokeColor=none;fillColor=none;align=center;verticalAlign=middle;whiteSpace=wrap;rounded=0;fontStyle=1" parent="OV7oBd3ReCpXOeC64sAB-1" vertex="1">
          <mxGeometry x="85" y="60" width="60" height="30" as="geometry" />
        </mxCell>
        <mxCell id="OV7oBd3ReCpXOeC64sAB-63" value="Stage 2&lt;br&gt;Accumulation" style="text;html=1;strokeColor=none;fillColor=none;align=center;verticalAlign=middle;whiteSpace=wrap;rounded=0;fontStyle=1" parent="OV7oBd3ReCpXOeC64sAB-1" vertex="1">
          <mxGeometry x="320" y="60" width="60" height="30" as="geometry" />
        </mxCell>
        <mxCell id="OV7oBd3ReCpXOeC64sAB-64" value="Stage 3&lt;br&gt;output register" style="text;html=1;strokeColor=none;fillColor=none;align=center;verticalAlign=middle;whiteSpace=wrap;rounded=0;fontStyle=1" parent="OV7oBd3ReCpXOeC64sAB-1" vertex="1">
          <mxGeometry x="510" y="60" width="100" height="30" as="geometry" />
        </mxCell>
        <mxCell id="OV7oBd3ReCpXOeC64sAB-65" value="" style="group;rotation=90;" parent="OV7oBd3ReCpXOeC64sAB-1" vertex="1" connectable="0">
          <mxGeometry x="-160" y="580" width="50" height="100" as="geometry" />
        </mxCell>
        <mxCell id="OV7oBd3ReCpXOeC64sAB-7" value="" style="rounded=0;whiteSpace=wrap;html=1;movable=1;resizable=1;rotatable=1;deletable=1;editable=1;connectable=1;rotation=90;" parent="OV7oBd3ReCpXOeC64sAB-65" vertex="1">
          <mxGeometry width="50" height="100" as="geometry" />
        </mxCell>
        <mxCell id="OV7oBd3ReCpXOeC64sAB-8" value="" style="rounded=0;whiteSpace=wrap;html=1;fillColor=#FF0000;movable=1;resizable=1;rotatable=1;deletable=1;editable=1;connectable=1;rotation=90;" parent="OV7oBd3ReCpXOeC64sAB-65" vertex="1">
          <mxGeometry x="40" y="40" width="50" height="20" as="geometry" />
        </mxCell>
        <mxCell id="OV7oBd3ReCpXOeC64sAB-9" value="" style="rounded=0;whiteSpace=wrap;html=1;fillColor=#08CC49;movable=1;resizable=1;rotatable=1;deletable=1;editable=1;connectable=1;rotation=90;" parent="OV7oBd3ReCpXOeC64sAB-65" vertex="1">
          <mxGeometry x="20" y="40" width="50" height="20" as="geometry" />
        </mxCell>
        <mxCell id="OV7oBd3ReCpXOeC64sAB-10" value="" style="rounded=0;whiteSpace=wrap;html=1;fillColor=#0000FF;movable=1;resizable=1;rotatable=1;deletable=1;editable=1;connectable=1;rotation=90;" parent="OV7oBd3ReCpXOeC64sAB-65" vertex="1">
          <mxGeometry y="40" width="50" height="20" as="geometry" />
        </mxCell>
        <mxCell id="OV7oBd3ReCpXOeC64sAB-11" value="" style="rounded=0;whiteSpace=wrap;html=1;fillColor=#FF0000;movable=1;resizable=1;rotatable=1;deletable=1;editable=1;connectable=1;rotation=90;" parent="OV7oBd3ReCpXOeC64sAB-65" vertex="1">
          <mxGeometry x="-20" y="40" width="50" height="20" as="geometry" />
        </mxCell>
        <mxCell id="OV7oBd3ReCpXOeC64sAB-12" value="" style="rounded=0;whiteSpace=wrap;html=1;fillColor=#08CC49;movable=1;resizable=1;rotatable=1;deletable=1;editable=1;connectable=1;rotation=90;" parent="OV7oBd3ReCpXOeC64sAB-65" vertex="1">
          <mxGeometry x="-40" y="40" width="50" height="20" as="geometry" />
        </mxCell>
        <mxCell id="OV7oBd3ReCpXOeC64sAB-66" value="Input Data" style="text;html=1;strokeColor=none;fillColor=none;align=center;verticalAlign=middle;whiteSpace=wrap;rounded=0;fontStyle=1" parent="OV7oBd3ReCpXOeC64sAB-1" vertex="1">
          <mxGeometry x="-165" y="555" width="60" height="30" as="geometry" />
        </mxCell>
        <mxCell id="OV7oBd3ReCpXOeC64sAB-67" value="Output&lt;br&gt;Data" style="text;html=1;strokeColor=none;fillColor=none;align=center;verticalAlign=middle;whiteSpace=wrap;rounded=0;fontStyle=1" parent="OV7oBd3ReCpXOeC64sAB-1" vertex="1">
          <mxGeometry x="700" y="90" width="60" height="30" as="geometry" />
        </mxCell>
        <mxCell id="OV7oBd3ReCpXOeC64sAB-68" value="Y" style="text;html=1;strokeColor=none;fillColor=none;align=center;verticalAlign=middle;whiteSpace=wrap;rounded=0;fontStyle=1" parent="OV7oBd3ReCpXOeC64sAB-1" vertex="1">
          <mxGeometry x="707" y="165" width="33" height="30" as="geometry" />
        </mxCell>
        <mxCell id="OV7oBd3ReCpXOeC64sAB-69" value="Cb" style="text;html=1;strokeColor=none;fillColor=none;align=center;verticalAlign=middle;whiteSpace=wrap;rounded=0;fontStyle=1" parent="OV7oBd3ReCpXOeC64sAB-1" vertex="1">
          <mxGeometry x="707" y="355" width="33" height="30" as="geometry" />
        </mxCell>
        <mxCell id="OV7oBd3ReCpXOeC64sAB-70" value="Cr" style="text;html=1;strokeColor=none;fillColor=none;align=center;verticalAlign=middle;whiteSpace=wrap;rounded=0;fontStyle=1" parent="OV7oBd3ReCpXOeC64sAB-1" vertex="1">
          <mxGeometry x="707" y="615" width="33" height="30" as="geometry" />
        </mxCell>
        <mxCell id="exX1HpsoAYPAiWp6pFQq-0" value="&lt;span&gt;FF&lt;/span&gt;" style="rounded=0;whiteSpace=wrap;html=1;fillColor=#FFFFFF;fontStyle=1" vertex="1" parent="OV7oBd3ReCpXOeC64sAB-1">
          <mxGeometry x="220" y="280" width="35" height="60" as="geometry" />
        </mxCell>
        <mxCell id="exX1HpsoAYPAiWp6pFQq-1" value="&lt;span&gt;FF&lt;/span&gt;" style="rounded=0;whiteSpace=wrap;html=1;fillColor=#FFFFFF;fontStyle=1" vertex="1" parent="OV7oBd3ReCpXOeC64sAB-1">
          <mxGeometry x="220" y="90" width="35" height="60" as="geometry" />
        </mxCell>
        <mxCell id="exX1HpsoAYPAiWp6pFQq-2" value="&lt;span&gt;FF&lt;/span&gt;" style="rounded=0;whiteSpace=wrap;html=1;fillColor=#FFFFFF;fontStyle=1" vertex="1" parent="OV7oBd3ReCpXOeC64sAB-1">
          <mxGeometry x="220" y="540" width="35" height="60" as="geometry" />
        </mxCell>
      </root>
    </mxGraphModel>
  </diagram>
  <diagram id="2TS_JyzDmBpRAPCjpPBp" name="Contrast Enhancer">
    <mxGraphModel dx="1194" dy="673" grid="1" gridSize="10" guides="1" tooltips="1" connect="1" arrows="1" fold="1" page="1" pageScale="1" pageWidth="827" pageHeight="1169" math="0" shadow="0">
      <root>
        <mxCell id="jssQyL1aiOnOmbMHSLf9-0" />
        <mxCell id="jssQyL1aiOnOmbMHSLf9-1" parent="jssQyL1aiOnOmbMHSLf9-0" />
        <mxCell id="jssQyL1aiOnOmbMHSLf9-16" value="" style="rounded=0;whiteSpace=wrap;html=1;" vertex="1" parent="jssQyL1aiOnOmbMHSLf9-1">
          <mxGeometry x="130" y="285" width="330" height="295" as="geometry" />
        </mxCell>
        <mxCell id="jssQyL1aiOnOmbMHSLf9-3" style="edgeStyle=orthogonalEdgeStyle;shape=flexArrow;rounded=0;orthogonalLoop=1;jettySize=auto;html=1;exitX=1;exitY=0.5;exitDx=0;exitDy=0;fillColor=default;" edge="1" parent="jssQyL1aiOnOmbMHSLf9-1" source="jssQyL1aiOnOmbMHSLf9-2">
          <mxGeometry relative="1" as="geometry">
            <mxPoint x="350" y="340.28571428571433" as="targetPoint" />
          </mxGeometry>
        </mxCell>
        <mxCell id="jssQyL1aiOnOmbMHSLf9-2" value="BLOCK&lt;br&gt;ROM" style="rounded=0;whiteSpace=wrap;html=1;" vertex="1" parent="jssQyL1aiOnOmbMHSLf9-1">
          <mxGeometry x="170" y="300" width="120" height="80" as="geometry" />
        </mxCell>
        <mxCell id="jssQyL1aiOnOmbMHSLf9-4" style="edgeStyle=orthogonalEdgeStyle;shape=flexArrow;rounded=0;orthogonalLoop=1;jettySize=auto;html=1;fillColor=default;" edge="1" parent="jssQyL1aiOnOmbMHSLf9-1">
          <mxGeometry relative="1" as="geometry">
            <mxPoint x="170" y="340" as="targetPoint" />
            <mxPoint x="110" y="340" as="sourcePoint" />
          </mxGeometry>
        </mxCell>
        <mxCell id="jssQyL1aiOnOmbMHSLf9-5" style="edgeStyle=orthogonalEdgeStyle;shape=flexArrow;rounded=0;orthogonalLoop=1;jettySize=auto;html=1;exitX=1;exitY=0.5;exitDx=0;exitDy=0;fillColor=default;" edge="1" parent="jssQyL1aiOnOmbMHSLf9-1" source="jssQyL1aiOnOmbMHSLf9-6">
          <mxGeometry relative="1" as="geometry">
            <mxPoint x="490" y="440.28571428571433" as="targetPoint" />
          </mxGeometry>
        </mxCell>
        <mxCell id="jssQyL1aiOnOmbMHSLf9-6" value="FF" style="rounded=0;whiteSpace=wrap;html=1;" vertex="1" parent="jssQyL1aiOnOmbMHSLf9-1">
          <mxGeometry x="350" y="410" width="40" height="60" as="geometry" />
        </mxCell>
        <mxCell id="jssQyL1aiOnOmbMHSLf9-7" style="edgeStyle=orthogonalEdgeStyle;shape=flexArrow;rounded=0;orthogonalLoop=1;jettySize=auto;html=1;fillColor=default;entryX=0;entryY=0.5;entryDx=0;entryDy=0;" edge="1" parent="jssQyL1aiOnOmbMHSLf9-1" target="jssQyL1aiOnOmbMHSLf9-6">
          <mxGeometry relative="1" as="geometry">
            <mxPoint x="310" y="440" as="targetPoint" />
            <mxPoint x="110" y="440" as="sourcePoint" />
          </mxGeometry>
        </mxCell>
        <mxCell id="jssQyL1aiOnOmbMHSLf9-8" style="edgeStyle=orthogonalEdgeStyle;shape=flexArrow;rounded=0;orthogonalLoop=1;jettySize=auto;html=1;exitX=1;exitY=0.5;exitDx=0;exitDy=0;fillColor=default;" edge="1" parent="jssQyL1aiOnOmbMHSLf9-1" source="jssQyL1aiOnOmbMHSLf9-9">
          <mxGeometry relative="1" as="geometry">
            <mxPoint x="490" y="540.2857142857143" as="targetPoint" />
          </mxGeometry>
        </mxCell>
        <mxCell id="jssQyL1aiOnOmbMHSLf9-9" value="FF" style="rounded=0;whiteSpace=wrap;html=1;" vertex="1" parent="jssQyL1aiOnOmbMHSLf9-1">
          <mxGeometry x="350" y="510" width="40" height="60" as="geometry" />
        </mxCell>
        <mxCell id="jssQyL1aiOnOmbMHSLf9-10" style="edgeStyle=orthogonalEdgeStyle;shape=flexArrow;rounded=0;orthogonalLoop=1;jettySize=auto;html=1;fillColor=default;entryX=0;entryY=0.5;entryDx=0;entryDy=0;" edge="1" parent="jssQyL1aiOnOmbMHSLf9-1" target="jssQyL1aiOnOmbMHSLf9-9">
          <mxGeometry relative="1" as="geometry">
            <mxPoint x="310" y="540" as="targetPoint" />
            <mxPoint x="110" y="540" as="sourcePoint" />
          </mxGeometry>
        </mxCell>
        <mxCell id="jssQyL1aiOnOmbMHSLf9-11" value="addr" style="text;html=1;strokeColor=none;fillColor=none;align=center;verticalAlign=middle;whiteSpace=wrap;rounded=0;" vertex="1" parent="jssQyL1aiOnOmbMHSLf9-1">
          <mxGeometry x="120" y="300" width="60" height="30" as="geometry" />
        </mxCell>
        <mxCell id="jssQyL1aiOnOmbMHSLf9-13" value="data out" style="text;html=1;strokeColor=none;fillColor=none;align=center;verticalAlign=middle;whiteSpace=wrap;rounded=0;" vertex="1" parent="jssQyL1aiOnOmbMHSLf9-1">
          <mxGeometry x="290" y="300" width="60" height="30" as="geometry" />
        </mxCell>
        <mxCell id="jssQyL1aiOnOmbMHSLf9-14" style="edgeStyle=orthogonalEdgeStyle;shape=flexArrow;rounded=0;orthogonalLoop=1;jettySize=auto;html=1;exitX=1;exitY=0.5;exitDx=0;exitDy=0;fillColor=default;" edge="1" parent="jssQyL1aiOnOmbMHSLf9-1" source="jssQyL1aiOnOmbMHSLf9-15">
          <mxGeometry relative="1" as="geometry">
            <mxPoint x="490" y="340.28571428571433" as="targetPoint" />
          </mxGeometry>
        </mxCell>
        <mxCell id="jssQyL1aiOnOmbMHSLf9-15" value="FF" style="rounded=0;whiteSpace=wrap;html=1;" vertex="1" parent="jssQyL1aiOnOmbMHSLf9-1">
          <mxGeometry x="350" y="310" width="40" height="60" as="geometry" />
        </mxCell>
        <mxCell id="Vm_zVBnC7V-oMDPBUOkE-0" value="Y" style="text;html=1;strokeColor=none;fillColor=none;align=center;verticalAlign=middle;whiteSpace=wrap;rounded=0;fontStyle=1" vertex="1" parent="jssQyL1aiOnOmbMHSLf9-1">
          <mxGeometry x="490" y="325" width="33" height="30" as="geometry" />
        </mxCell>
        <mxCell id="Vm_zVBnC7V-oMDPBUOkE-1" value="Cb" style="text;html=1;strokeColor=none;fillColor=none;align=center;verticalAlign=middle;whiteSpace=wrap;rounded=0;fontStyle=1" vertex="1" parent="jssQyL1aiOnOmbMHSLf9-1">
          <mxGeometry x="490" y="425" width="33" height="30" as="geometry" />
        </mxCell>
        <mxCell id="Vm_zVBnC7V-oMDPBUOkE-2" value="Cr" style="text;html=1;strokeColor=none;fillColor=none;align=center;verticalAlign=middle;whiteSpace=wrap;rounded=0;fontStyle=1" vertex="1" parent="jssQyL1aiOnOmbMHSLf9-1">
          <mxGeometry x="490" y="525" width="33" height="30" as="geometry" />
        </mxCell>
        <mxCell id="Vm_zVBnC7V-oMDPBUOkE-3" value="Y" style="text;html=1;strokeColor=none;fillColor=none;align=center;verticalAlign=middle;whiteSpace=wrap;rounded=0;fontStyle=1" vertex="1" parent="jssQyL1aiOnOmbMHSLf9-1">
          <mxGeometry x="70" y="325" width="33" height="30" as="geometry" />
        </mxCell>
        <mxCell id="Vm_zVBnC7V-oMDPBUOkE-4" value="Cb" style="text;html=1;strokeColor=none;fillColor=none;align=center;verticalAlign=middle;whiteSpace=wrap;rounded=0;fontStyle=1" vertex="1" parent="jssQyL1aiOnOmbMHSLf9-1">
          <mxGeometry x="70" y="425" width="33" height="30" as="geometry" />
        </mxCell>
        <mxCell id="Vm_zVBnC7V-oMDPBUOkE-5" value="Cr" style="text;html=1;strokeColor=none;fillColor=none;align=center;verticalAlign=middle;whiteSpace=wrap;rounded=0;fontStyle=1" vertex="1" parent="jssQyL1aiOnOmbMHSLf9-1">
          <mxGeometry x="70" y="525" width="33" height="30" as="geometry" />
        </mxCell>
      </root>
    </mxGraphModel>
  </diagram>
</mxfile>
